<!-- Generator: Adobe Illustrator 19.0.1, SVG Export Plug-In  -->
<svg version="1.1"
   xmlns="http://www.w3.org/2000/svg" xmlns:xlink="http://www.w3.org/1999/xlink" xmlns:a="http://ns.adobe.com/AdobeSVGViewerExtensions/3.0/"
   x="0px" y="0px" width="32px" height="32px" viewBox="0 0 32 32" style="enable-background:new 0 0 32 32;" xml:space="preserve">
<style type="text/css">
  .st0{fill:#ffffff;}
</style>
<defs>
</defs>
<path id="notice_1_" class="st0" d="M30,2v28H2V2H30 M16,6c0.8,0,1.5-0.7,1.5-1.5C17.5,3.7,16.8,3,16,3c-0.8,0-1.5,0.7-1.5,1.5
  C14.5,5.3,15.2,6,16,6 M17,15h10V8H17V15 M5,9h10V8H5V9 M5,12h10v-1H5V12 M5,15h10v-1H5V15 M5,18h22v-1H5V18 M5,21h22v-1H5V21 M5,24
  h22v-1H5V24 M5,27h22v-1H5V27 M30,0H2C0.9,0,0,0.9,0,2v28c0,1.1,0.9,2,2,2h28c1.1,0,2-0.9,2-2V2C32,0.9,31.1,0,30,0L30,0z"/>
</svg>
